<?xml version="1.0" encoding="utf-8"?>
<!-- Uploaded to: SVG Repo, www.svgrepo.com, Generator: SVG Repo Mixer Tools -->
<!DOCTYPE svg PUBLIC "-//W3C//DTD SVG 1.1//EN" "http://www.w3.org/Graphics/SVG/1.1/DTD/svg11.dtd">
<svg fill="#000000" width="800px" height="800px" viewBox="0 0 1000 1000" version="1.1" xmlns="http://www.w3.org/2000/svg" xmlns:xlink="http://www.w3.org/1999/xlink"  enable-background="new 0 0 1000 1000" xml:space="preserve">

<g>
<g transform="translate(0.000000,511.000000) scale(0.100000,-0.100000)">
<path d="M3203.3,3458.3V1906.7H1651.7H100v-163.3V1580h1551.7h1551.7V110v-1470H1651.7H100v-163.3v-163.3h1551.7h1551.7v-1551.7V-4790h163.3H3530v1551.7v1551.7h1470h1470v-1551.7V-4790h163.3h163.3v1551.7v1551.7h1551.7H9900v163.3v163.3H8348.3H6796.7V110v1470h1551.7H9900v163.3v163.3H8348.3H6796.7v1551.7V5010h-163.3H6470V3458.3V1906.7H5000H3530v1551.7V5010h-163.3h-163.3V3458.3z M6470,110v-1470H5000H3530V110v1470h1470h1470V110z"/>
<path d="M4736.6,1386c-365.5-79.6-728.9-365.5-896.3-706.4c-191.9-390-191.9-749.3,0-1139.3c120.5-245,345-469.6,590-590c390-191.9,749.3-191.9,1139.3,0c245,120.4,469.6,345,590,590c191.9,390,191.9,749.3,0,1139.3c-120.4,245-345,469.6-590,590C5287.9,1410.5,5020.4,1447.3,4736.6,1386z M5255.2,1059.4C5690.1,945,5980,567.3,5980,110c0-553.3-426.7-980-980-980c-553.3,0-980,426.7-980,980C4020,761.3,4622.3,1222.7,5255.2,1059.4z"/>
<path d="M8003.3,4652.7c-365.4-79.6-728.9-365.5-896.3-706.4c-93.9-189.9-147-394-147-569.6c0-463.5,308.3-949.4,737-1159.7c390-191.9,749.3-191.9,1139.3,0c245,120.5,469.6,345,590,590c191.9,390,191.9,749.3,0,1139.2c-120.4,245-345,469.6-590,590C8554.5,4677.2,8287.1,4714,8003.3,4652.7z M8521.9,4326c434.9-114.3,724.8-492,724.8-949.4c0-553.3-426.7-980-980-980c-553.3,0-980,426.7-980,980C7286.7,4028,7889,4489.4,8521.9,4326z"/>
<path d="M590,1243.1l-112.3-112.3l510.4-510.4L1498.5,110L988.1-400.4L477.7-910.8l118.4-116.4l116.4-118.4l510.4,510.4l510.4,510.4l510.4-510.4l510.4-510.4l116.4,118.4L2989-910.8l-510.4,510.4L1968.1,110l510.4,510.4l510.4,510.4l-118.4,116.4l-116.4,118.4l-510.4-510.4l-510.4-510.4L1227,851.1c-277.7,277.7-510.4,504.3-514.5,504.3C706.4,1355.4,651.2,1304.4,590,1243.1z"/>
<path d="M1470-1880.6c-365.5-79.6-728.9-365.5-896.3-706.4c-93.9-189.9-147-394.1-147-569.6c0-463.5,308.3-949.4,737-1159.7c390-191.9,749.3-191.9,1139.2,0c245,120.4,469.6,345,590,590c191.9,390,191.9,749.3,0,1139.3c-120.5,245-345,469.6-590,590C2021.2-1856.1,1753.7-1819.4,1470-1880.6z M1988.5-2207.3c434.9-114.3,724.8-492,724.8-949.4c0-553.3-426.7-980-980-980c-553.3,0-980,426.7-980,980C753.3-2505.4,1355.6-2044,1988.5-2207.3z"/>
<path d="M7123.3-2023.5L7011-2135.8l510.4-510.4l510.4-510.4l-510.4-510.4L7011-4177.5l118.4-116.4l116.4-118.4l510.4,510.4l510.4,510.4l510.4-510.4l510.4-510.4l116.4,118.4l118.4,116.4l-510.4,510.4l-510.4,510.4l510.4,510.4l510.4,510.4l-118.4,116.4L9287.5-1901l-510.4-510.4l-510.4-510.4l-506.3,506.3c-277.7,277.7-510.4,504.3-514.5,504.3C7239.7-1911.2,7184.6-1962.3,7123.3-2023.5z"/>
</g>
</g>
</svg>